<?xml version="1.0" encoding="utf-8"?>
<!-- Generator: Adobe Illustrator 26.5.2, SVG Export Plug-In . SVG Version: 6.00 Build 0)  -->
<svg version="1.1" xmlns="http://www.w3.org/2000/svg" xmlns:xlink="http://www.w3.org/1999/xlink" x="0px" y="0px"
	 viewBox="0 0 64 64" style="enable-background:new 0 0 64 64;" xml:space="preserve">
<style type="text/css">
	.st0{fill:#F7F5F3;}
	.st1{fill:#251627;}
	.st2{font-family:'MendlSans-DuskXBold';}
	.st3{font-size:52.7455px;}
</style>
<g id="Layer_2">
	<path class="st0" d="M61,64H3c-1.66,0-3-1.34-3-3V3c0-1.66,1.34-3,3-3h58c1.66,0,3,1.34,3,3v58C64,62.66,62.66,64,61,64z"/>
</g>
<g id="Layer_1">
	<g>
		<text transform="matrix(1 0 0 1 2.9245 51.12)" class="st1 st2 st3">A</text>
		<path class="st1" d="M20.5,20.06l4.5-2.44l5.5,10.13l2.7-14.58L44.8,6.88l0.23,0.42l-3.44,16.81L62.63,39.3l-11.26,6.11
			l-12.85-9.74l-1.14,4.76l5.27,9.71l-1.25,0.68l-6.77-0.12L19.64,22.1L20.5,20.06z"/>
	</g>
</g>
</svg>
